<?xml version="1.0" encoding="UTF-8"?>
<svg width="140" height="60" version="1.1" viewBox="0 0 37.042 15.875" xmlns="http://www.w3.org/2000/svg">
 <defs>
  <linearGradient id="e" x1="97.58" x2="128.18" y1="202.35" y2="202.35" gradientTransform="matrix(.36493 0 0 .36162 -33.344 -67.568)" gradientUnits="userSpaceOnUse">
   <stop stop-color="#fafafa" offset="0"/>
   <stop stop-color="#f1f1f1" offset="1"/>
  </linearGradient>
 </defs>
 <g fill="#e5e5e5" fill-rule="evenodd" stroke-width=".36327">
  <path d="m0.84701 0h33.741c0.46924 0 0.84701 0.37434 0.84701 0.83932v10.724h-35.423l-0.011539-10.724c-5.474e-4 -0.46498 0.37776-0.83932 0.847-0.83932z"/>
  <path d="m2.5208 13.795h31.832v2.0735h-31.832z"/>
  <path d="m32.91 1.1636h4.1317l4e-6 10.408h-4.1317z"/>
  <path d="m33.878 11.228 3.1637 0.34396-4e-6 3.0387c-0.0015 0.78594-0.63212 1.2375-1.2839 1.2647l-1.4053-7e-3 -1.5509-3.5889z"/>
  <path d="m2.195 11.197-2.1835 0.36569-0.011539 3.0474c0.0016422 0.78594 0.63212 1.2375 1.2839 1.2647l1.4031-0.01522 0.49205-3.5655z"/>
  <path d="m34.389 2.0256 2.653-0.86194c-0.10539-0.82869-0.6792-1.1252-1.4787-1.1421-0.20536-0.0043395-0.37419-0.01602-0.59203-0.019672-0.21784-0.0036886-0.71487-3.5801e-4 -0.71487-3.5801e-4 -0.50121 0.097262-0.89355 0.38179-1.1678 0.84836z"/>
 </g>
 <rect x="2.2457" y=".95721" width="32.55" height="12.812" ry=".97192" fill="#f8f8f8" fill-rule="evenodd" stroke="url(#e)" stroke-width=".18116"/>
 <path d="m4.3714 7.7022h2.4614v2.8001h3.0769v-2.8024h2.4616l-4-3.4159z" fill="none" stroke="#e5e5e5" stroke-width=".77404"/>
</svg>
