<svg height="60" viewBox="0 0 26.458 15.875" width="100" xmlns="http://www.w3.org/2000/svg" xmlns:xlink="http://www.w3.org/1999/xlink"><linearGradient id="a" gradientTransform="matrix(3.9124 0 0 1.5989 -.04718 -1.0031)" gradientUnits="userSpaceOnUse" x1="2.4162" x2="7.1659" y1="8.0492" y2="2.2273"><stop offset="0" stop-color="#cfcfcf"/><stop offset="1" stop-color="#efefef"/></linearGradient><linearGradient id="b" gradientTransform="matrix(.12439 0 0 .18074 -53.453 -26.428)" gradientUnits="userSpaceOnUse" x1="447.49" x2="524.77" y1="177.84" y2="177.84"><stop offset="0" stop-color="#fafafa"/><stop offset="1" stop-color="#f1f1f1"/></linearGradient><g fill-rule="evenodd"><path d="m2.9745.9572h19.997c.52333 0 .94461.43348.94461.97193v10.868c0 .53845-.4213.97191-.94461.97191h-19.997c-.52333 0-.94461-.43348-.94461-.97191v-10.868c0-.53845.4213-.97193.94461-.97193z" fill="url(#a)" stroke-width=".17779"/><path d="m.81575-.0000005h22.976c.45193 0 .81575.37434.81575.83932v10.724h-24.596l-.011106-10.724c-.00035147-.46498.36383-.83932.81575-.83932z" fill="#e5e5e5" stroke-width=".35651"/><path d="m23.89 1.8986v10.877c0 .45483-.33419.94156-.77625.94156h-20.219v.19942h20.219c.60458 0 1.021-.51892 1.021-1.141v-10.878h-.24478z" fill="#fff" stroke-width=".17779"/><g fill="#e5e5e5" stroke-width=".35651"><path d="m1.7551 13.795h22.163v2.0735h-22.163z"/><path d="m22.479 1.1636h3.9792v10.408h-3.9792z"/><path d="m23.411 11.228 3.047.34396v3.0387c-.0018.78594-.60881 1.2375-1.2366 1.2647l-1.3534-.007-1.4937-3.5889z"/><path d="m2.114 11.197-2.1029.36569-.011106 3.0474c.0014059.78594.6088 1.2375 1.2366 1.2647l1.3513-.01522.4739-3.5655z"/><path d="m23.903 2.0256 2.5551-.86194c-.1015-.82869-.65415-1.1252-1.4242-1.1421-.1978-.0043395-.3604-.01602-.5702-.019672-.2098-.0036886-.68849-.00035801-.68849-.00035801-.48272.097262-.86059.38179-1.1247.84836z"/></g><rect fill="#f8f8f8" height="12.84" ry=".97408" stroke="url(#b)" stroke-width=".26458" width="22.249" x="2.1045" y=".94301"/></g></svg>