<svg height="11.615121mm" viewBox="0 0 19.917834 11.61512" width="19.917833mm" xmlns="http://www.w3.org/2000/svg" xmlns:xlink="http://www.w3.org/1999/xlink"><linearGradient id="a" gradientTransform="matrix(22.322 0 0 8.8661 264.96 40.648232)" gradientUnits="userSpaceOnUse" x1="2.4162" x2="7.1659" y1="8.0492" y2="2.2273"><stop offset="0" stop-color="#cfcfcf"/><stop offset="1" stop-color="#efefef"/></linearGradient><linearGradient id="b" gradientTransform="matrix(.70971768 0 0 1.0022158 -39.280779 -100.33605)" gradientUnits="userSpaceOnUse" x1="533.71136" x2="533.71136" y1="154.2484" y2="219.35825"><stop offset="0" stop-color="#fff"/><stop offset="1" stop-color="#f1f1f1"/></linearGradient><g fill-rule="evenodd" transform="matrix(.1319452 0 0 .1319452 -34.995713 -6.09723)"><path d="m282.2 51.518232h114.09c2.9858 0 5.3894 2.4037 5.3894 5.3895v60.263998c0 2.9858-2.4037 5.3894-5.3894 5.3894h-114.09c-2.9858 0-5.3894-2.4037-5.3894-5.3894v-60.263998c0-2.9858 2.4037-5.3895 5.3894-5.3895z" fill="url(#a)"/><path d="m270.06712 46.210342h131.08484c2.57843 0 4.65421 2.07578 4.65421 4.65421v59.464218h-140.32985l-.0634-59.464218c-.003-2.57843 2.07577-4.65421 4.6542-4.65421z" fill="#e5e5e5"/><path d="m401.53 56.738232v60.316998c0 2.5221-1.9067 5.2211-4.4288 5.2211h-115.36v1.1058h115.36c3.4494 0 5.8255-2.8775 5.8255-6.3269v-60.319998h-1.3966z" fill="#fff"/><g fill="#e5e5e5"><path d="m275.2428 122.70352h126.4479v11.497757h-126.4479z"/><path d="m393.4815 52.662962h22.703v57.714268h-22.703z"/><path d="m398.8 108.46993 17.3845 1.9073v16.8501c-.01 4.35818-3.4735 6.86209-7.0552 7.0129l-7.7217-.0389-8.522-19.90136z"/><path d="m277.29053 108.30094-11.99798 2.02783-.0634 16.89856c.009 4.35818 3.47346 6.86209 7.05515 7.0129l7.70997-.0845 2.70377-19.77131z"/><path d="m401.6066 57.442592 14.5779-4.77963c-.5791-4.59526-3.7322-6.23962-8.1254-6.33301-1.1285-.024-2.0562-.0888-3.2532-.10917-1.197-.0204-3.9281-.002-3.9281-.002-2.7541.53934-4.91 2.11709-6.4171 4.70431z"/></g><rect fill="#f8f8f8" height="71.200417" ry="5.401443" stroke="url(#b)" width="126.94011" x="277.70044" y="51.439529"/></g></svg>