<?xml version="1.0" encoding="UTF-8"?>
<svg width="100" height="60" version="1.1" viewBox="0 0 26.458 15.875" xmlns="http://www.w3.org/2000/svg">
 <defs>
  <linearGradient id="a" x1="2.4162" x2="7.1659" y1="8.0492" y2="2.2273" gradientTransform="matrix(3.9124 0 0 1.5989 -.04718 -1.0031)" gradientUnits="userSpaceOnUse">
   <stop stop-color="#cfcfcf" offset="0"/>
   <stop stop-color="#efefef" offset="1"/>
  </linearGradient>
  <linearGradient id="f" x1="447.49" x2="524.77" y1="177.84" y2="177.84" gradientTransform="matrix(.12439 0 0 .18074 -53.372 -26.428)" gradientUnits="userSpaceOnUse">
   <stop stop-color="#fafafa" offset="0"/>
   <stop stop-color="#f1f1f1" offset="1"/>
  </linearGradient>
 </defs>
 <g fill-rule="evenodd">
  <path d="m2.9745 0.9572h19.997c0.52333 0 0.94461 0.43348 0.94461 0.97193v10.868c0 0.53845-0.4213 0.97191-0.94461 0.97191h-19.997c-0.52333 0-0.94461-0.43348-0.94461-0.97191v-10.868c0-0.53845 0.4213-0.97193 0.94461-0.97193z" fill="url(#a)" stroke-width=".17779"/>
  <path d="m0.81575-5.0038e-7h22.976c0.45193 0 0.81575 0.37434 0.81575 0.83932v10.724h-24.596l-0.011106-10.724c-3.5147e-4 -0.46498 0.36383-0.83932 0.81575-0.83932z" fill="#e5e5e5" stroke-width=".35651"/>
  <path d="m23.89 1.8986v10.877c0 0.45483-0.33419 0.94156-0.77625 0.94156h-20.219v0.19942h20.219c0.60458 0 1.021-0.51892 1.021-1.141v-10.878h-0.24478z" fill="#fff" stroke-width=".17779"/>
  <g fill="#e5e5e5" stroke-width=".35651">
   <path d="m1.7551 13.795h22.163v2.0735h-22.163z"/>
   <path d="m22.479 1.1636h3.9792v10.408h-3.9792z"/>
   <path d="m23.411 11.228 3.047 0.34396v3.0387c-0.0018 0.78594-0.60881 1.2375-1.2366 1.2647l-1.3534-7e-3 -1.4937-3.5889z"/>
   <path d="m2.114 11.197-2.1029 0.36569-0.011106 3.0474c0.0014059 0.78594 0.6088 1.2375 1.2366 1.2647l1.3513-0.01522 0.4739-3.5655z"/>
   <path d="m23.903 2.0256 2.5551-0.86194c-0.1015-0.82869-0.65415-1.1252-1.4242-1.1421-0.1978-0.0043395-0.3604-0.01602-0.5702-0.019672-0.2098-0.0036886-0.68849-3.5801e-4 -0.68849-3.5801e-4 -0.48272 0.097262-0.86059 0.38179-1.1247 0.84836z"/>
  </g>
  <rect x="2.1859" y=".94301" width="22.249" height="12.84" ry=".97408" fill="#f8f8f8" stroke="url(#f)" stroke-width=".17779"/>
 </g>
</svg>
