<?xml version="1.0" encoding="UTF-8"?>
<svg width="66" height="60" version="1.1" viewBox="0 0 17.462 15.875" xmlns="http://www.w3.org/2000/svg" xmlns:xlink="http://www.w3.org/1999/xlink">
 <defs>
  <linearGradient id="e" x1="479.34" x2="456.28" y1="177.84" y2="177.84" gradientTransform="matrix(.12795 0 0 .18073 -54.901 -26.427)" gradientUnits="userSpaceOnUse">
   <stop stop-color="#f1f1f1" offset="0"/>
   <stop stop-color="#fafafa" offset="1"/>
  </linearGradient>
 </defs>
 <g fill-rule="evenodd">
  <g fill="#e5e5e5" stroke-width=".36157">
   <path d="m0.83906 1.4623e-6h14.956c0.46485 0 0.87037 0.3754 0.8391 0.83933v10.724h-16.623l-0.011424-10.724c-3.6152e-4 -0.46497 0.37425-0.83933 0.83909-0.83933z"/>
   <path d="m1.8053 13.793h13.397v2.0734h-13.397z"/>
   <path d="m13.369 1.1637h4.0932v10.408h-4.0932z"/>
   <path d="m14.328 11.228 3.1342 0.34395v3.0386c-0.0018 0.78595-0.62623 1.2375-1.2719 1.2647l-1.3921-7e-3 -1.5364-3.5889z"/>
   <path d="m2.1745 11.197-2.163 0.36567-0.011424 3.0474c0.0014461 0.78595 0.62623 1.2375 1.2719 1.2647l1.39-0.01522 0.48744-3.5655z"/>
   <path d="m14.834 2.0254 2.6282-0.86193c-0.1044-0.82869-0.67287-1.1252-1.4649-1.1421-0.20345-0.0043395-0.3707-0.01602-0.5865-0.019672-0.2158-0.0036886-0.70819-3.58e-4 -0.70819-3.58e-4 -0.49652 0.097262-0.88522 0.3818-1.1569 0.84837z"/>
  </g>
  <rect x="2.2483" y=".94311" width="12.996" height="12.84" ry=".97407" fill="#f8f8f8" stroke="url(#e)" stroke-width=".18031"/>
 </g>
</svg>
