<svg height="60" viewBox="0 0 17.462 15.875" width="66" xmlns="http://www.w3.org/2000/svg" xmlns:xlink="http://www.w3.org/1999/xlink"><linearGradient id="a" gradientTransform="matrix(.12795 0 0 .18073 -54.916 -26.427)" gradientUnits="userSpaceOnUse" x1="479.34" x2="456.28" y1="177.84" y2="177.84"><stop offset="0" stop-color="#f1f1f1"/><stop offset="1" stop-color="#fafafa"/></linearGradient><g fill-rule="evenodd"><g fill="#e5e5e5" stroke-width=".36157"><path d="m.83906.00000146h14.956c.46485 0 .87037.3754.8391.83933v10.724h-16.623l-.011424-10.724c-.00036152-.46497.37425-.83933.83909-.83933z"/><path d="m1.8053 13.793h13.397v2.0734h-13.397z"/><path d="m13.369 1.1637h4.0932v10.408h-4.0932z"/><path d="m14.328 11.228 3.1342.34395v3.0386c-.0018.78595-.62623 1.2375-1.2719 1.2647l-1.3921-.007-1.5364-3.5889z"/><path d="m2.1745 11.197-2.163.36567-.011424 3.0474c.0014461.78595.62623 1.2375 1.2719 1.2647l1.39-.01522.48744-3.5655z"/><path d="m14.834 2.0254 2.6282-.86193c-.1044-.82869-.67287-1.1252-1.4649-1.1421-.20345-.0043395-.3707-.01602-.5865-.019672-.2158-.0036886-.70819-.000358-.70819-.000358-.49652.097262-.88522.3818-1.1569.84837z"/></g><rect fill="#f8f8f8" height="12.84" ry=".97407" stroke="url(#a)" stroke-width=".26458" width="12.996" x="2.233" y=".94311"/></g></svg>