<svg height="11.615015mm" viewBox="0 0 12.362655 11.615015" width="12.362656mm" xmlns="http://www.w3.org/2000/svg" xmlns:xlink="http://www.w3.org/1999/xlink"><linearGradient id="a" gradientTransform="matrix(.38517289 0 0 1.0061356 -19.83415 -104.25445)" gradientUnits="userSpaceOnUse" x1="533.71136" x2="533.71136" y1="154.2484" y2="219.35825"><stop offset="0" stop-color="#fff"/><stop offset="1" stop-color="#f1f1f1"/></linearGradient><g fill-rule="evenodd" transform="matrix(.131944 0 0 .131944 -18.45416 -5.67686)"><g fill="#e5e5e5"><path d="m144.51777 43.024793h74.48877c2.57843 0 4.65421 2.07578 4.65421 4.65421v59.464217h-83.73378l-.0634-59.464217c-.003-2.57843 2.07577-4.65421 4.6542-4.65421z"/><path d="m145.73203 119.51796h74.104309v11.497757h-74.104309z"/><path d="m210.8568 49.477413h22.703v57.714267h-22.703z"/><path d="m216.1753 105.28438 17.3845 1.9073v16.8501c-.01 4.35818-3.4735 6.86209-7.0552 7.0129l-7.7217-.0389-8.522-19.90136z"/><path d="m151.92495 105.11539-11.99798 2.02783-.0634 16.89856c.009 4.35818 3.47346 6.86209 7.05515 7.0129l7.70997-.0845 2.70377-19.77131z"/><path d="m218.9819 54.257043 14.5779-4.77963c-.5791-4.59526-3.7322-6.23962-8.1254-6.33301-1.1285-.024-2.0562-.0888-3.2532-.10917-1.197-.0204-3.9281-.002-3.9281-.002-2.7541.53934-4.91 2.11709-6.4171 4.70431z"/></g><rect fill="#f8f8f8" height="71.478889" ry="5.422568" stroke="url(#a)" width="68.892021" x="152.19562" y="48.114742"/></g></svg>