<svg viewBox="0 0 35 60" xmlns="http://www.w3.org/2000/svg" xmlns:xlink="http://www.w3.org/1999/xlink"><radialGradient id="a" cx="193.4" cy="181.62" gradientTransform="matrix(.13524 0 0 .34162 8.5772 -48.069)" gradientUnits="userSpaceOnUse" r="68.141" spreadMethod="reflect" xlink:href="#b"/><linearGradient id="b"><stop offset="0" stop-color="#fff"/><stop offset="1" stop-color="#666"/></linearGradient><radialGradient id="c" cx="85.528" cy="170.14" gradientTransform="matrix(.14849 0 0 .25527 8.1707 -36.461)" gradientUnits="userSpaceOnUse" r="252.08" spreadMethod="reflect" xlink:href="#b"/><linearGradient id="d" gradientTransform="matrix(.13405 0 0 .2832 8.3022 -37.262)" gradientUnits="userSpaceOnUse" spreadMethod="reflect" x1="193.63" x2="193.63" y1="161.65" y2="162.42"><stop offset="0" stop-color="#333"/><stop offset="1" stop-color="#fff"/></linearGradient><radialGradient id="e" cx="158.03" cy="169.2" gradientTransform="matrix(.13493 0 0 .28136 8.3022 -37.262)" gradientUnits="userSpaceOnUse" r="31.163" spreadMethod="reflect"><stop offset="0" stop-color="#b3b3eb" stop-opacity="0"/><stop offset="1"/></radialGradient><g transform="translate(-14.6 .6541)"><path d="m32.103 59.075c-14.905 0-17.159-12.11-17.004-15.947.22946-3.6188.42034-18.176-.23806-30.434.16776-13.396 11.35-13.076 17.24-13.076 5.8896 0 17.072-.32021 17.24 13.076-.65838 12.258-.46751 26.815-.23806 30.433.1542 3.8367-2.0993 15.947-17.004 15.947" style="fill-rule:evenodd;stroke:#000;stroke-linejoin:round;stroke-opacity:.19772;stroke-width:.53116;fill:url(#c)"/><ellipse cx="32.083" cy="10.963" fill="url(#a)" fill-rule="evenodd" rx="3.1799" ry="8.0323"/><g fill="none" stroke="#484848"><path d="m32.105 21.772c-8.1608 0-12.278.18287-14.374.37127-2.0963.1884-2.0388.39852-2.2514.40444" stroke-width=".53125"/><path d="m32.104 21.772c8.1608 0 12.278.18287 14.374.37127 2.0963.1884 2.0388.39852 2.2514.40444" stroke-width=".53125"/><path d="m32.098-.10793v21.716" stroke-width=".53116"/></g><g fill-rule="evenodd"><path d="m34.434 11.065a2.3354 4.9339 0 1 1 -4.6708 0 2.3354 4.9339 0 1 1 4.6708 0z" fill="url(#d)"/><path d="m34.434 11.065a2.3354 4.9339 0 1 1 -4.6708 0 2.3354 4.9339 0 1 1 4.6708 0z" fill="url(#e)" stroke="#000" stroke-width=".10716"/></g></g></svg>