<svg height="60" viewBox="0 0 40 60" width="40" xmlns="http://www.w3.org/2000/svg" xmlns:xlink="http://www.w3.org/1999/xlink"><linearGradient id="a" gradientUnits="userSpaceOnUse" x1="2.45" x2="3.66" xlink:href="#c" y1="1.7" y2="1.7"/><linearGradient id="b" gradientUnits="userSpaceOnUse" x1="9.5" x2="14.098" xlink:href="#c" y1="6.46" y2="6.46"/><linearGradient id="c" gradientUnits="userSpaceOnUse" x1="2.45" x2="3.66" y1="1.7" y2="1.7"><stop offset="0" stop-color="#d6d6d6"/><stop offset="1" stop-color="#939393"/></linearGradient><linearGradient id="d" gradientUnits="userSpaceOnUse" x1=".95001" x2="22.686" y1="16.492" y2="16.492"><stop offset="0" stop-color="#d6d6d6"/><stop offset="1" stop-color="#656565"/></linearGradient><g transform="scale(1.6949 1.6438)"><g stroke="#333" stroke-width=".11" transform="matrix(3.8 0 0 3.8 .00001 -.000006)"><path d="m3.1.062v4.2" fill="none" stroke-linecap="round"/><path d="m6.1 3.7c-1.9.69-4 .74-6 0" fill="none" stroke-linecap="round" stroke-linejoin="bevel"/><rect fill="url(#a)" fill-rule="evenodd" height="2.8" rx=".57" width="1.1" x="2.5" y=".78"/></g><g stroke-width=".418"><path d="m23.6 17.1c0 10.6-5.32 19.4-11.8 19.4s-11.8-8.74-11.8-19.4 5.32-17.1 11.8-17.1 11.8 6.46 11.8 17.1z" fill="url(#d)"/><g stroke="#333"><path d="m11.8.236v16" fill="none" stroke-linecap="round"/><path d="m23.2 14.2c-7.22 2.62-15.2 2.81-22.8 0" fill="none" stroke-linecap="round" stroke-linejoin="bevel"/><rect fill="url(#b)" fill-rule="evenodd" height="10.6" rx="2.17" width="4.18" x="9.69" y="2.96"/></g></g></g></svg>