<?xml version="1.0" encoding="UTF-8"?>
<svg version="1.1" viewBox="0 0 35 60" xmlns="http://www.w3.org/2000/svg" xmlns:xlink="http://www.w3.org/1999/xlink">
 <radialGradient id="a" cx="193.4" cy="181.62" r="68.141" gradientTransform="matrix(.13524 0 0 .34162 -6.0078 -47.415)" gradientUnits="userSpaceOnUse" spreadMethod="reflect" xlink:href="#b"/>
 <linearGradient id="b">
  <stop stop-color="#fff" offset="0"/>
  <stop stop-color="#666" offset="1"/>
 </linearGradient>
 <radialGradient id="c" cx="85.528" cy="170.14" r="252.08" gradientTransform="matrix(.14849 0 0 .25527 -6.4293 -35.807)" gradientUnits="userSpaceOnUse" spreadMethod="reflect" xlink:href="#b"/>
 <linearGradient id="d" x1="193.63" x2="193.63" y1="161.65" y2="162.42" gradientTransform="matrix(.13405 0 0 .2832 -6.2984 -36.608)" gradientUnits="userSpaceOnUse" spreadMethod="reflect">
  <stop stop-color="#333" offset="0"/>
  <stop stop-color="#fff" offset="1"/>
 </linearGradient>
 <radialGradient id="e" cx="158.03" cy="169.2" r="31.163" gradientTransform="matrix(.13493 0 0 .28136 -6.2984 -36.608)" gradientUnits="userSpaceOnUse" spreadMethod="reflect">
  <stop stop-color="#b3b3eb" stop-opacity="0" offset="0"/>
  <stop offset="1"/>
 </radialGradient>
 <path d="m17.503 59.729c-14.905 0-17.159-12.11-17.004-15.947 0.22946-3.6188 0.42034-18.176-0.23806-30.434 0.16776-13.396 11.35-13.076 17.24-13.076 5.8896 0 17.072-0.32021 17.24 13.076-0.65838 12.258-0.46751 26.815-0.23806 30.433 0.1542 3.8367-2.0993 15.947-17.004 15.947" fill="url(#c)" fill-rule="evenodd" stroke="#000" stroke-linejoin="round" stroke-opacity=".19772" stroke-width=".53116"/>
 <ellipse cx="17.498" cy="11.617" rx="3.1799" ry="8.0323" fill="url(#a)" fill-rule="evenodd"/>
 <g fill="none" stroke="#484848">
  <path d="m17.505 22.426c-8.1608 0-12.278 0.18287-14.374 0.37127-2.0963 0.1884-2.0388 0.39852-2.2514 0.40444" stroke-width=".53125"/>
  <path d="m17.504 22.426c8.1608 0 12.278 0.18287 14.374 0.37127 2.0963 0.1884 2.0388 0.39852 2.2514 0.40444" stroke-width=".53125"/>
  <path d="m17.498 0.54617v21.716" stroke-width=".53116"/>
 </g>
 <path d="m19.833 11.719a2.3354 4.9339 0 1 1-4.6708 0 2.3354 4.9339 0 1 1 4.6708 0z" fill="url(#d)" fill-rule="evenodd"/>
 <path d="m19.833 11.719a2.3354 4.9339 0 1 1-4.6708 0 2.3354 4.9339 0 1 1 4.6708 0z" fill="url(#e)" fill-rule="evenodd" stroke="#000" stroke-width=".10716"/>
</svg>
