<svg height="60" viewBox="0 0 40 60" width="40" xmlns="http://www.w3.org/2000/svg" xmlns:xlink="http://www.w3.org/1999/xlink"><linearGradient id="a" gradientTransform="matrix(6.4406 0 0 6.2464 .000017 -.00001)" gradientUnits="userSpaceOnUse" x1="2.45" x2="3.66" xlink:href="#c" y1="1.7" y2="1.7"/><linearGradient id="b" gradientTransform="scale(1.6949 1.6438)" gradientUnits="userSpaceOnUse" x1="9.5" x2="14.098" xlink:href="#c" y1="6.46" y2="6.46"/><linearGradient id="c" gradientUnits="userSpaceOnUse" x1="2.45" x2="3.66" y1="1.7" y2="1.7"><stop offset="0" stop-color="#d6d6d6"/><stop offset="1" stop-color="#939393"/></linearGradient><linearGradient id="d" gradientTransform="scale(1.6949 1.6438)" gradientUnits="userSpaceOnUse" x1=".95001" x2="22.686" y1="16.492" y2="16.492"><stop offset="0" stop-color="#d6d6d6"/><stop offset="1" stop-color="#656565"/></linearGradient><g stroke-width=".69771"><g stroke="#333"><path d="m19.966.38727v26.235" fill="none" stroke-linecap="round"/><path d="m39.288 23.112c-12.237 4.31-25.762 4.6224-38.644 0" fill="none" stroke-linecap="round" stroke-linejoin="bevel"/><rect fill="url(#a)" fill-rule="evenodd" height="17.49" rx="3.6712" width="7.0847" x="16.102" y="4.8722"/></g><path d="m40 28.109c0 17.424-9.0169 31.89-20 31.89s-20-14.367-20-31.89 9.0169-28.109 20-28.109 20 10.619 20 28.109z" fill="url(#d)"/><g stroke="#333"><path d="m20 .38794v26.301" fill="none" stroke-linecap="round"/><path d="m39.322 23.342c-12.237 4.3068-25.762 4.6191-38.644 0" fill="none" stroke-linecap="round" stroke-linejoin="bevel"/><rect fill="url(#b)" fill-rule="evenodd" height="17.424" rx="3.6779" width="7.0847" x="16.424" y="4.8656"/></g></g><rect fill="#ff1500" fill-opacity=".25" fill-rule="evenodd" height="16.944" rx="3.2245" ry="3.4625" stroke-width="6.1367" width="6.4489" x="16.741" y="5.1058"/></svg>