<?xml version="1.0" encoding="UTF-8" standalone="no"?>
<svg
   viewBox="0 0 35 60"
   version="1.1"
   id="svg453"
   xmlns:xlink="http://www.w3.org/1999/xlink"
   xmlns="http://www.w3.org/2000/svg"
   xmlns:svg="http://www.w3.org/2000/svg">
  <defs
     id="defs457">
    <radialGradient
       id="c"
       cx="85.528"
       cy="170.14"
       r="252.08"
       gradientTransform="matrix(0.14849,0,0,0.25527,-6.4293,-35.807)"
       gradientUnits="userSpaceOnUse"
       spreadMethod="reflect"
       xlink:href="#b" />
    <linearGradient
       id="b">
      <stop
         stop-color="#fff"
         offset="0"
         id="stop3" />
      <stop
         stop-color="#666"
         offset="1"
         id="stop5" />
    </linearGradient>
    <radialGradient
       id="a"
       cx="193.39999"
       cy="181.62"
       r="68.140999"
       gradientTransform="matrix(0.13524,0,0,0.34162,-6.0078,-47.415)"
       gradientUnits="userSpaceOnUse"
       spreadMethod="reflect"
       xlink:href="#b" />
    <linearGradient
       id="d"
       x1="193.63"
       x2="193.63"
       y1="161.64999"
       y2="162.42"
       gradientTransform="matrix(0.13405,0,0,0.2832,-6.2984,-36.608)"
       gradientUnits="userSpaceOnUse"
       spreadMethod="reflect">
      <stop
         stop-color="#333"
         offset="0"
         id="stop9" />
      <stop
         stop-color="#fff"
         offset="1"
         id="stop11" />
    </linearGradient>
    <radialGradient
       id="e"
       cx="158.03"
       cy="169.2"
       r="31.163"
       gradientTransform="matrix(0.13493,0,0,0.28136,-6.2984,-36.608)"
       gradientUnits="userSpaceOnUse"
       spreadMethod="reflect">
      <stop
         stop-color="#b3b3eb"
         stop-opacity="0"
         offset="0"
         id="stop14" />
      <stop
         offset="1"
         id="stop16" />
    </radialGradient>
  </defs>
  <g
     id="g265"
     transform="translate(-9.3999999e-4,-4.4938326e-5)">
    <path
       d="M 17.503,59.729 C 2.598,59.729 0.344,47.619 0.499,43.782 0.72846,40.1632 0.91934,25.606 0.26094,13.348 c 0.16776,-13.396 11.35,-13.076 17.24,-13.076 5.8896,0 17.072,-0.32021 17.24,13.076 -0.65838,12.258 -0.46751,26.815 -0.23806,30.433 0.1542,3.8367 -2.0993,15.947 -17.004,15.947"
       fill="url(#c)"
       fill-rule="evenodd"
       stroke="#000000"
       stroke-linejoin="round"
       stroke-opacity="0.19772"
       stroke-width="0.53116"
       id="path19"
       style="fill:url(#c)" />
    <ellipse
       cx="17.497999"
       cy="11.617"
       rx="3.1798999"
       ry="8.0323"
       fill="url(#a)"
       fill-rule="evenodd"
       id="ellipse21"
       style="fill:url(#a)" />
    <g
       fill="none"
       stroke="#484848"
       id="g29">
      <path
         d="m 17.505,22.426 c -8.1608,0 -12.278,0.18287 -14.374,0.37127 -2.0963,0.1884 -2.0388,0.39852 -2.2514,0.40444"
         stroke-width="0.53125"
         id="path23" />
      <path
         d="m 17.504,22.426 c 8.1608,0 12.278,0.18287 14.374,0.37127 2.0963,0.1884 2.0388,0.39852 2.2514,0.40444"
         stroke-width="0.53125"
         id="path25" />
      <path
         d="m 17.498,0.54617 v 21.716"
         stroke-width="0.53116"
         id="path27" />
    </g>
    <path
       d="m 19.833,11.719 a 2.3354,4.9339 0 1 1 -4.6708,0 2.3354,4.9339 0 1 1 4.6708,0 z"
       fill="url(#d)"
       fill-rule="evenodd"
       id="path31"
       style="fill:url(#d)" />
    <path
       d="m 19.833,11.719 a 2.3354,4.9339 0 1 1 -4.6708,0 2.3354,4.9339 0 1 1 4.6708,0 z"
       fill="url(#e)"
       fill-rule="evenodd"
       stroke="#000000"
       stroke-width="0.10716"
       id="path33"
       style="fill:url(#e)" />
  </g>
  <path
     d="m34.434 11.065a2.3354 4.9339 0 1 1 -4.6708 0 2.3354 4.9339 0 1 1 4.6708 0z"
     style="fill:#ff1400;fill-opacity:.50196;fill-rule:evenodd;stroke:#ff1400;stroke-opacity:.50196;stroke-width:.10716"
     transform="translate(-14.6 .6541)"
     id="path451" />
</svg>
