<svg height="9.563195mm" viewBox="0 0 6.2268581 9.5631952" width="6.226858mm" xmlns="http://www.w3.org/2000/svg" xmlns:xlink="http://www.w3.org/1999/xlink"><linearGradient id="a" gradientUnits="userSpaceOnUse" x1="-218.23392109934" x2="-212.53231434848" y1="188.98810309963" y2="188.98810309963"><stop offset="0" stop-color="#d6d6d6"/><stop offset="1" stop-color="#656565"/></linearGradient><linearGradient id="b" gradientUnits="userSpaceOnUse" x1="-216.08975626054" x2="-214.80308722328" y1="186.3922928196" y2="186.3922928196"><stop offset="0" stop-color="#d6d6d6"/><stop offset="1" stop-color="#939393"/></linearGradient><g transform="translate(218.55985 -184.2065)"><path d="m-212.333 188.71902c0 2.78941-1.39393 5.05068-3.11342 5.05068-1.7195 0-3.11343-2.26127-3.11343-5.05068s1.41839-4.51252 3.13789-4.51252c1.71949 0 3.08896 1.72311 3.08896 4.51252z" fill="url(#a)"/><path d="m-215.44807 184.20884c-.95261 0-1.73653.55323-2.24371 1.28803-.50884.73718-.75361 1.66727-.82783 2.43428 1.07427.36049 1.94146.53162 3.07154.53069z" fill="#0096ff" fill-opacity=".25" fill-rule="evenodd" stroke-width=".268987"/><g stroke="#333" stroke-width=".110192"><path d="m-215.44642 184.26823v4.18754" fill="none" stroke-linecap="round"/><path d="m-212.42857 187.95206c-1.85028.69374-4.00312.73681-6.03416 0" fill="none" stroke-linecap="round" stroke-linejoin="bevel"/><rect fill="url(#b)" fill-rule="evenodd" height="2.813062" rx=".574843" width="1.149686" x="-216.02127" y="184.98576"/></g></g></svg>