<?xml version="1.0" encoding="UTF-8"?>
<svg width="140" height="60" version="1.1" viewBox="0 0 37.042 15.875" xmlns="http://www.w3.org/2000/svg">
 <linearGradient id="a" x1="338.63" x2="358.68" y1="522.48" y2="538.13" gradientTransform="matrix(-.060888 0 0 .060336 56.497 -18.194)" gradientUnits="userSpaceOnUse">
  <stop stop-color="#d6d6d6" offset="0"/>
  <stop stop-color="#939393" offset="1"/>
 </linearGradient>
 <linearGradient id="b" x1="93.499" x2="97.32" y1="223.35" y2="225.96" gradientTransform="matrix(.36493 0 0 .36162 -33.305 -67.568)" gradientUnits="userSpaceOnUse">
  <stop stop-color="#656565" offset="0"/>
  <stop stop-color="#939393" offset="1"/>
 </linearGradient>
 <linearGradient id="c" x1="186.6" x2="186.1" y1="190.18" y2="188.08" gradientTransform="matrix(.36493 0 0 .36162 -33.305 -67.568)" gradientUnits="userSpaceOnUse">
  <stop stop-color="#d6d6d6" offset="0"/>
  <stop stop-color="#656565" offset="1"/>
 </linearGradient>
 <linearGradient id="d" x1="127.4" x2="167.04" y1="207.21" y2="207.21" gradientTransform="matrix(.36493 0 0 .36162 -33.344 -67.568)" gradientUnits="userSpaceOnUse">
  <stop stop-color="#d8d8d8" offset="0"/>
  <stop stop-color="#b1b1b1" offset="1"/>
 </linearGradient>
 <linearGradient id="e" x1="97.58" x2="128.18" y1="202.35" y2="202.35" gradientTransform="matrix(.36493 0 0 .36162 -33.344 -67.568)" gradientUnits="userSpaceOnUse">
  <stop stop-color="#f1f1f1" offset="0"/>
  <stop stop-color="#c1c1c1" offset="1"/>
 </linearGradient>
 <g fill-rule="evenodd">
  <g stroke-width=".36327">
   <path d="m0.84701 0h33.741c0.46924 0 0.84701 0.37434 0.84701 0.83932v10.724h-35.423l-0.011539-10.724c-5.474e-4 -0.46498 0.37776-0.83932 0.847-0.83932z" fill="#656565"/>
   <path d="m2.5208 13.795h31.832v2.0735h-31.832z" fill="#929292"/>
   <path d="m32.91 1.1636h4.1317l4e-6 10.408h-4.1317z" fill="#d6d6d6"/>
   <path d="m33.878 11.228 3.1637 0.34396-4e-6 3.0387c-0.0015 0.78594-0.63212 1.2375-1.2839 1.2647l-1.4053-7e-3 -1.5509-3.5889z" fill="url(#a)"/>
   <path d="m2.195 11.197-2.1835 0.36569-0.011539 3.0474c0.0016422 0.78594 0.63212 1.2375 1.2839 1.2647l1.4031-0.01522 0.49205-3.5655z" fill="url(#b)"/>
   <path d="m34.389 2.0256 2.653-0.86194c-0.10539-0.82869-0.6792-1.1252-1.4787-1.1421-0.20536-0.0043395-0.37419-0.01602-0.59203-0.019672-0.21784-0.0036886-0.71487-3.5801e-4 -0.71487-3.5801e-4 -0.50121 0.097262-0.89355 0.38179-1.1678 0.84836z" fill="url(#c)"/>
  </g>
  <rect x="2.2457" y=".95721" width="32.55" height="12.812" ry=".97192" fill="url(#d)" stroke="url(#e)" stroke-width=".18116"/>
 </g>
 <path d="m4.3714 7.7022h2.4614v2.8001h3.0769v-2.8024h2.4616l-4-3.4159z" fill="none" stroke="#333" stroke-width=".77404"/>
</svg>
