<svg height="60" viewBox="0 0 37.042 15.875" width="140" xmlns="http://www.w3.org/2000/svg" xmlns:xlink="http://www.w3.org/1999/xlink"><linearGradient id="a" gradientTransform="matrix(-.060888 0 0 .060336 56.497 -18.194)" gradientUnits="userSpaceOnUse" x1="338.63" x2="358.68" y1="522.48" y2="538.13"><stop offset="0" stop-color="#d6d6d6"/><stop offset="1" stop-color="#939393"/></linearGradient><linearGradient id="b" gradientTransform="matrix(.36493 0 0 .36162 -33.305 -67.568)" gradientUnits="userSpaceOnUse" x1="93.499" x2="97.32" y1="223.35" y2="225.96"><stop offset="0" stop-color="#656565"/><stop offset="1" stop-color="#939393"/></linearGradient><linearGradient id="c" gradientTransform="matrix(.36493 0 0 .36162 -33.305 -67.568)" gradientUnits="userSpaceOnUse" x1="186.6" x2="186.1" y1="190.18" y2="188.08"><stop offset="0" stop-color="#d6d6d6"/><stop offset="1" stop-color="#656565"/></linearGradient><linearGradient id="d" gradientTransform="matrix(.36493 0 0 .36162 -33.344 -67.568)" gradientUnits="userSpaceOnUse" x1="127.4" x2="167.04" y1="207.21" y2="207.21"><stop offset="0" stop-color="#d8d8d8"/><stop offset="1" stop-color="#b1b1b1"/></linearGradient><linearGradient id="e" gradientTransform="matrix(.36493 0 0 .36162 -33.344 -67.568)" gradientUnits="userSpaceOnUse" x1="97.58" x2="128.18" y1="202.35" y2="202.35"><stop offset="0" stop-color="#f1f1f1"/><stop offset="1" stop-color="#c1c1c1"/></linearGradient><g fill-rule="evenodd" stroke-width=".36327"><path d="m.84701 0h33.741c.46924 0 .84701.37434.84701.83932v10.724h-35.423l-.011539-10.724c-.0005474-.46498.37776-.83932.847-.83932z" fill="#656565"/><path d="m2.5208 13.795h31.832v2.0735h-31.832z" fill="#929292"/><path d="m32.91 1.1636h4.1317l.000004 10.408h-4.1317z" fill="#d6d6d6"/><path d="m33.878 11.228 3.1637.34396-.000004 3.0387c-.0015.78594-.63212 1.2375-1.2839 1.2647l-1.4053-.007-1.5509-3.5889z" fill="url(#a)"/><path d="m2.195 11.197-2.1835.36569-.011539 3.0474c.0016422.78594.63212 1.2375 1.2839 1.2647l1.4031-.01522.49205-3.5655z" fill="url(#b)"/><path d="m34.389 2.0256 2.653-.86194c-.10539-.82869-.6792-1.1252-1.4787-1.1421-.20536-.0043395-.37419-.01602-.59203-.019672-.21784-.0036886-.71487-.00035801-.71487-.00035801-.50121.097262-.89355.38179-1.1678.84836z" fill="url(#c)"/></g><rect fill="url(#d)" fill-rule="evenodd" height="12.812" ry=".97192" stroke="url(#e)" stroke-width=".26459" width="32.55" x="2.246" y=".95721"/><path d="m4.3714 7.7022h2.4614v2.8001h3.0769v-2.8024h2.4616l-4-3.4159z" fill="none" stroke="#333" stroke-width=".77404"/></svg>