<svg height="11.615047mm" viewBox="0 0 19.917702 11.615047" width="19.917702mm" xmlns="http://www.w3.org/2000/svg" xmlns:xlink="http://www.w3.org/1999/xlink"><linearGradient id="a" gradientTransform="matrix(11.131698 0 0 4.4214115 197.45916 184.07423)" gradientUnits="userSpaceOnUse" x1="2.4162" x2="7.1659" y1="8.0492" y2="2.2273"><stop offset="0" stop-color="#cfcfcf"/><stop offset="1" stop-color="#efefef"/></linearGradient><linearGradient id="b" gradientTransform="matrix(-.16684802 0 0 .16684802 326.18477 136.53605)" gradientUnits="userSpaceOnUse" x1="338.63031" x2="358.67578" y1="522.47595" y2="538.1333"><stop offset="0" stop-color="#d6d6d6"/><stop offset="1" stop-color="#939393"/></linearGradient><linearGradient id="c" gradientUnits="userSpaceOnUse" x1="199.82784876328" x2="203.64910389461" y1="223.35260247002" y2="225.96500031597"><stop offset="0" stop-color="#656565"/><stop offset="1" stop-color="#939393"/></linearGradient><linearGradient id="d" gradientUnits="userSpaceOnUse" x1="266.70633129201" x2="266.2007150522" y1="190.18412772245" y2="188.07736113264"><stop offset="0" stop-color="#d6d6d6"/><stop offset="1" stop-color="#656565"/></linearGradient><linearGradient id="e" gradientTransform="matrix(.35392719 0 0 .49979229 45.738149 113.76716)" gradientUnits="userSpaceOnUse" x1="506.54913" x2="586.02765" y1="186.9615" y2="186.9615"><stop offset="0" stop-color="#d8d8d8"/><stop offset="1" stop-color="#b1b1b1"/></linearGradient><linearGradient id="f" gradientTransform="matrix(.35392719 0 0 .49979229 45.738149 113.76716)" gradientUnits="userSpaceOnUse" x1="447.48715" x2="524.77094" y1="177.84055" y2="177.84055"><stop offset="0" stop-color="#f1f1f1"/><stop offset="1" stop-color="#c1c1c1"/></linearGradient><g fill-rule="evenodd" transform="matrix(.26458333 0 0 .26458333 -52.279924 -49.43686)"><path d="m206.05653 189.49496h56.89524c1.48898 0 2.68762 1.1987 2.68762 2.68768v30.05289c0 1.48898-1.19869 2.68763-2.68762 2.68763h-56.89524c-1.48898 0-2.68762-1.1987-2.68762-2.68763v-30.05289c0-1.48898 1.19869-2.68768 2.68762-2.68768z" fill="url(#a)" stroke-width=".498687"/><path d="m199.91437 186.84799h65.37035c1.28583 0 2.32099 1.03516 2.32099 2.32099v29.65405h-69.98071l-.0316-29.65405c-.001-1.28583 1.03516-2.32099 2.32099-2.32099z" fill="#656565"/><path d="m265.56489 192.09811v30.07932c0 1.25774-.95085 2.6037-2.20859 2.6037h-57.52857v.55145h57.52857c1.72017 0 2.9051-1.43497 2.9051-3.15515v-30.08081h-.69646z" fill="#fff" stroke-width=".498687"/><path d="m202.58707 224.99417h63.057961v5.733785h-63.057961z" fill="#929292"/><path d="m261.5512 190.06583h11.3217v28.78137h-11.3217z" fill="#d6d6d6"/><path d="m264.20347 217.89605 8.66943.95115v8.40293c-.005 2.17337-1.73219 3.42204-3.51834 3.49725l-3.85071-.0194-4.24982-9.92456z" fill="url(#b)"/><path d="m203.60824 217.81178-5.98324 1.01125-.0316 8.4271c.004 2.17337 1.73217 3.42204 3.51832 3.49725l3.84486-.0421 1.34834-9.8597z" fill="url(#c)"/><path d="m265.60309 192.44937 7.26981-2.38354c-.28879-2.2916-1.8612-3.11162-4.05203-3.15819-.56277-.012-1.02541-.0443-1.62233-.0544-.59693-.0102-1.9589-.00099-1.9589-.00099-1.37343.26896-2.44855 1.05576-3.20012 2.34598z" fill="url(#d)"/><rect fill="url(#e)" height="35.506744" ry="2.693631" stroke="url(#f)" stroke-width=".498687" width="63.303421" x="203.81265" y="189.45572"/></g></svg>