<?xml version="1.0" encoding="UTF-8"?>
<svg width="100" height="60" version="1.1" viewBox="0 0 100 60" xmlns="http://www.w3.org/2000/svg">
 <linearGradient id="a" x1="2.4162" x2="7.1659" y1="8.0492" y2="2.2273" gradientTransform="matrix(14.788 0 0 6.0432 -.17414 -3.7931)" gradientUnits="userSpaceOnUse">
  <stop stop-color="#cfcfcf" offset="0"/>
  <stop stop-color="#efefef" offset="1"/>
 </linearGradient>
 <linearGradient id="b" x1="338.63" x2="358.68" y1="522.48" y2="538.13" gradientTransform="matrix(-.22164 0 0 .22805 170.82 -68.757)" gradientUnits="userSpaceOnUse">
  <stop stop-color="#d6d6d6" offset="0"/>
  <stop stop-color="#939393" offset="1"/>
 </linearGradient>
 <linearGradient id="c" x1="199.83" x2="203.65" y1="223.35" y2="225.96" gradientTransform="matrix(1.3284,0,0,1.3668,-262.48,-255.38)" gradientUnits="userSpaceOnUse">
  <stop stop-color="#656565" offset="0"/>
  <stop stop-color="#939393" offset="1"/>
 </linearGradient>
 <linearGradient id="d" x1="266.71" x2="266.2" y1="190.18" y2="188.08" gradientTransform="matrix(1.3284,0,0,1.3668,-262.48,-255.38)" gradientUnits="userSpaceOnUse">
  <stop stop-color="#d6d6d6" offset="0"/>
  <stop stop-color="#656565" offset="1"/>
 </linearGradient>
 <linearGradient id="e" x1="506.55" x2="586.03" y1="186.96" y2="186.96" gradientTransform="matrix(.47016 0 0 .68311 -202.03 -99.879)" gradientUnits="userSpaceOnUse">
  <stop stop-color="#d8d8d8" offset="0"/>
  <stop stop-color="#b1b1b1" offset="1"/>
 </linearGradient>
 <linearGradient id="f" x1="447.49" x2="524.77" y1="177.84" y2="177.84" gradientTransform="matrix(.47016 0 0 .68311 -202.03 -99.879)" gradientUnits="userSpaceOnUse">
  <stop stop-color="#f1f1f1" offset="0"/>
  <stop stop-color="#c1c1c1" offset="1"/>
 </linearGradient>
 <g fill-rule="evenodd">
  <path d="m11.25 3.6149h75.579c1.978 0 3.5702 1.6384 3.5702 3.6735v41.076c0 2.0352-1.5924 3.6734-3.5702 3.6734h-75.579c-1.978 0-3.5702-1.6384-3.5702-3.6734v-41.076c0-2.0352 1.5924-3.6735 3.5702-3.6735z" fill="url(#a)" stroke-width=".67197"/>
  <path d="m3.0804 0.00658h86.838c1.7081 0 3.0832 1.4149 3.0832 3.1723v40.531h-92.963l-0.041977-40.531c-0.0013284-1.7574 1.3752-3.1723 3.0832-3.1723z" fill="#656565" stroke-width="1.3475"/>
  <path d="m90.29 7.1823v41.112c0 1.719-1.2631 3.5587-2.9339 3.5587h-76.422v0.75372h76.422c2.2851 0 3.8591-1.9614 3.8591-4.3125v-41.115h-0.92518z" fill="#fff" stroke-width=".67197"/>
  <g stroke-width="1.3475">
   <path d="m6.6406 52.136h83.766v7.837h-83.766z" fill="#929292"/>
   <path d="m84.963 4.4077h15.04v39.338h-15.04z" fill="#d6d6d6"/>
   <path d="m88.483 42.446 11.516 1.3v11.485c-0.0066 2.9706-2.3011 4.6772-4.6737 4.78l-5.1153-0.02651-5.6454-13.565z" fill="url(#b)"/>
   <path d="m7.9955 42.323-7.9481 1.3821-0.041977 11.518c0.0053136 2.9706 2.3011 4.6772 4.6737 4.78l5.1076-0.057542 1.7911-13.476z" fill="url(#c)"/>
   <path d="m90.343 7.6607 9.6572-3.2578c-0.38363-3.1322-2.4724-4.2529-5.3827-4.3166-0.74758-0.016402-1.3621-0.060549-2.1551-0.074354-0.79296-0.013941-2.6022-0.0013531-2.6022-0.0013531-1.8244 0.36761-3.2527 1.4431-4.251 3.2065z" fill="url(#d)"/>
  </g>
  <rect x="7.9541" y="3.5739" width="84.092" height="48.531" ry="3.6816" fill="url(#e)" stroke="url(#f)"/>
 </g>
</svg>
