<svg height="11.615047mm" viewBox="0 0 12.362682 11.615047" width="12.362682mm" xmlns="http://www.w3.org/2000/svg" xmlns:xlink="http://www.w3.org/1999/xlink"><linearGradient id="a" gradientTransform="matrix(-.16684802 0 0 .16684802 457.8413 214.08468)" gradientUnits="userSpaceOnUse" x1="338.63031" x2="358.67578" y1="522.47595" y2="538.1333"><stop offset="0" stop-color="#d6d6d6"/><stop offset="1" stop-color="#939393"/></linearGradient><linearGradient id="b" gradientUnits="userSpaceOnUse" x1="360.03877876328" x2="363.86003389461" y1="300.90122247002" y2="303.51362031597"><stop offset="0" stop-color="#656565"/><stop offset="1" stop-color="#939393"/></linearGradient><linearGradient id="c" gradientUnits="userSpaceOnUse" x1="398.36286129201" x2="397.8572450522" y1="267.73274772245" y2="265.62598113264"><stop offset="0" stop-color="#d6d6d6"/><stop offset="1" stop-color="#656565"/></linearGradient><linearGradient id="d" gradientTransform="matrix(.19208083 0 0 .50174705 278.16509 190.95032)" gradientUnits="userSpaceOnUse" x1="506.54913" x2="586.02765" y1="186.9615" y2="186.9615"><stop offset="0" stop-color="#d8d8d8"/><stop offset="1" stop-color="#b1b1b1"/></linearGradient><linearGradient id="e" gradientTransform="matrix(.19208083 0 0 .50174705 278.16509 190.95032)" gradientUnits="userSpaceOnUse" x1="447.03323" x2="516.2417" y1="177.95511" y2="177.95511"><stop offset="0" stop-color="#f1f1f1"/><stop offset="1" stop-color="#b1b1b1"/></linearGradient><g fill-rule="evenodd" transform="matrix(.26458333 0 0 .26458333 -94.66906 -69.95494)"><path d="m360.1253 264.39661h37.14661c1.28583 0 2.32099 1.03516 2.32099 2.32099v29.65406h-41.75697l-.0316-29.65406c-.001-1.28583 1.03516-2.32099 2.32099-2.32099z" fill="#656565"/><path d="m360.73083 302.54279h36.954876v5.733785h-36.954876z" fill="#929292"/><path d="m393.20774 267.61445h11.32169v28.78137h-11.32169z" fill="#d6d6d6"/><path d="m395.86 295.44468 8.66943.95114v8.40293c-.005 2.17337-1.73219 3.42204-3.51833 3.49725l-3.85072-.0194-4.24981-9.92456z" fill="url(#a)"/><path d="m363.81917 295.3604-5.98324 1.01126-.0316 8.42709c.004 2.17337 1.73217 3.42204 3.51832 3.49725l3.84486-.0421 1.34834-9.8597z" fill="url(#b)"/><path d="m397.25962 269.99799 7.26981-2.38354c-.28879-2.2916-1.8612-3.11162-4.05203-3.15819-.56277-.012-1.0254-.0443-1.62233-.0544-.59693-.0102-1.95889-.001-1.95889-.001-1.37344.26896-2.44856 1.05576-3.20013 2.34598z" fill="url(#c)"/><rect fill="url(#d)" height="35.645615" ry="2.704166" stroke="url(#e)" stroke-width=".498687" width="34.355576" x="363.95416" y="266.93491"/></g></svg>