<svg height="60" viewBox="0 0 66 60" width="66" xmlns="http://www.w3.org/2000/svg" xmlns:xlink="http://www.w3.org/1999/xlink"><linearGradient id="a" gradientTransform="matrix(1.3664 0 0 1.3668 -.000956 .000006)" gradientUnits="userSpaceOnUse" x1="42.147" x2="41.637" y1="3.3281" y2="1.2281"><stop offset="0" stop-color="#d6d6d6"/><stop offset="1" stop-color="#656565"/></linearGradient><linearGradient id="b" gradientTransform="matrix(1.3664 0 0 1.3668 -.000956 .000006)" gradientUnits="userSpaceOnUse" x1="2.228" x2="6.048" y1="36.498" y2="39.108"><stop offset="0" stop-color="#656565"/><stop offset="1" stop-color="#939393"/></linearGradient><linearGradient id="c" gradientTransform="matrix(-.22798 0 0 .22804 138.84 -68.763)" gradientUnits="userSpaceOnUse" x1="338.63" x2="358.68" y1="522.48" y2="538.13"><stop offset="0" stop-color="#d6d6d6"/><stop offset="1" stop-color="#939393"/></linearGradient><linearGradient id="d" gradientTransform="matrix(.48361 0 0 .68308 -207.56 -99.883)" gradientUnits="userSpaceOnUse" x1="461.97" x2="535.38" y1="186.96" y2="186.96"><stop offset="0" stop-color="#d8d8d8"/><stop offset="1" stop-color="#b1b1b1"/></linearGradient><linearGradient id="e" gradientTransform="matrix(.48361 0 0 .68308 -207.56 -99.883)" gradientUnits="userSpaceOnUse" x1="453.41" x2="483.79" y1="177.84" y2="177.84"><stop offset="0" stop-color="#f1f1f1"/><stop offset="1" stop-color="#c1c1c1"/></linearGradient><g fill-rule="evenodd"><g stroke-width="1.3666"><path d="m3.1712.00000553h56.527c1.7569 0 3.2896 1.4188 3.1714 3.1723v40.53h-62.826l-.043178-40.53c-.0013664-1.7574 1.4145-3.1723 3.1714-3.1723z" fill="#656565"/><path d="m6.823 52.131h50.636v7.8366h-50.636z" fill="#929292"/><path d="m50.529 4.3982h15.47v39.337h-15.47z" fill="#d6d6d6"/><path d="m54.154 42.435 11.846 1.3v11.485c-.0068 2.9705-2.3669 4.6771-4.8074 4.7798l-5.2615-.02652-5.8069-13.564z" fill="url(#c)"/><path d="m8.2184 42.32-8.1752 1.3821-.043178 11.518c.0054655 2.9705 2.3669 4.6771 4.8074 4.7798l5.2536-.05754 1.8423-13.476z" fill="url(#b)"/><path d="m56.066 7.6551 9.9332-3.2577c-.3946-3.1321-2.5431-4.2528-5.5366-4.3165-.76895-.016401-1.4011-.060548-2.2167-.07435-.81562-.013941-2.6766-.0013531-2.6766-.0013531-1.8766.3676-3.3457 1.443-4.3726 3.2064z" fill="url(#a)"/></g><rect fill="url(#d)" height="48.53" ry="3.6815" stroke="url(#e)" width="49.119" x="8.4405" y="3.5645"/></g></svg>