<svg height="11.615067mm" viewBox="0 0 26.856001 11.615066" width="26.856001mm" xmlns="http://www.w3.org/2000/svg" xmlns:xlink="http://www.w3.org/1999/xlink"><linearGradient id="a" gradientUnits="userSpaceOnUse" x1="532.239029" x2="532.239029" y1="56.270133" y2="121.379983"><stop offset="0" stop-color="#fff"/><stop offset="1" stop-color="#f1f1f1"/></linearGradient><g transform="matrix(.13194458 0 0 .13194458 -57.080236 -6.35364)"><g fill-rule="evenodd"><path d="m437.26186 48.153839h185.40164c2.57843 0 4.65421 2.07578 4.65421 4.65421v59.464221h-194.64665l-.0634-59.464221c-.003-2.57843 2.07577-4.65421 4.6542-4.65421z" fill="#e5e5e5"/><path d="m446.45923 124.64703h174.91151v11.497757h-174.91151z" fill="#e5e5e5"/><path d="m613.44466 54.606459h22.70299l.00002 57.714271h-22.70301z" fill="#e5e5e5"/><path d="m618.76322 110.41343 17.38445 1.9073-.00002 16.8501c-.009 4.35818-3.47345 6.86209-7.05514 7.0129l-7.72176-.0389-8.52199-19.90136z" fill="#e5e5e5"/><path d="m444.66904 110.24444-11.99798 2.02783-.0634 16.89856c.009 4.35818 3.47346 6.86209 7.05515 7.0129l7.70997-.0845 2.70377-19.77131z" fill="#e5e5e5"/><path d="m621.56976 59.386089 14.57789-4.77963c-.5791-4.59526-3.73214-6.23962-8.12538-6.33301-1.12844-.024-2.05615-.0888-3.25316-.10917-1.19701-.0204-3.92813-.002-3.92813-.002-2.75412.53934-4.90998 2.11709-6.41705 4.70431z" fill="#e5e5e5"/><rect fill="#f8f8f8" height="71.042999" ry="5.3895" stroke="url(#a)" width="178.86" x="445.15765" y="53.461731"/></g><path d="m456.84767 90.863729h13.649v15.527001h17.062v-15.540001h13.65l-22.181-18.94184z" fill="none" stroke="#e5e5e5" stroke-width="4.2922"/></g></svg>